<svg width="22" height="26" viewBox="0 0 22 26" fill="none" xmlns="http://www.w3.org/2000/svg">
<path fill-rule="evenodd" clip-rule="evenodd" d="M5.56 25.4624C8.18848 25.4624 10.32 23.3308 10.32 20.7024V5.29761C10.32 3.97681 9.78387 2.80005 8.92078 1.93701C8.07074 1.07373 6.86768 0.537598 5.56 0.537598C2.93152 0.537598 0.799988 2.66919 0.799988 5.29761V20.7024C0.799988 23.3308 2.93152 25.4624 5.56 25.4624ZM11.68 5.29761C11.68 7.92627 13.8115 10.0576 16.44 10.0576C19.0685 10.0576 21.2 7.92627 21.2 5.29761C21.2 2.66919 19.0685 0.537598 16.44 0.537598C13.8115 0.537598 11.68 2.66919 11.68 5.29761Z" fill="white"/>
</svg>
