<svg width="48" height="48" viewBox="0 0 48 48" fill="none" xmlns="http://www.w3.org/2000/svg">
<path d="M24 0C10.7446 0 0 10.7446 0 24C0 37.2554 10.7446 48 24 48C37.2554 48 48 37.2554 48 24C48 10.7446 37.2554 0 24 0ZM23.04 34.8738C23.04 38.5846 20.0308 41.5938 16.32 41.5938C12.6092 41.5938 9.6 38.5846 9.6 34.8738V13.1262C9.6 9.41539 12.6092 6.40615 16.32 6.40615C18.1662 6.40615 19.8646 7.16308 21.0646 8.38154C22.2831 9.6 23.04 11.2615 23.04 13.1262V34.8738ZM31.68 19.8462C27.9692 19.8462 24.96 16.8369 24.96 13.1262C24.96 9.41539 27.9692 6.40615 31.68 6.40615C35.3908 6.40615 38.4 9.41539 38.4 13.1262C38.4 16.8369 35.3908 19.8462 31.68 19.8462Z" fill="url(#paint0_linear_952_8469)"/>
<defs>
<linearGradient id="paint0_linear_952_8469" x1="0" y1="24" x2="48" y2="24" gradientUnits="userSpaceOnUse">
<stop stop-color="#9300E9"/>
<stop offset="1" stop-color="#5300FF"/>
</linearGradient>
</defs>
</svg>
